<svg xmlns="http://www.w3.org/2000/svg" viewBox="0 0 64 64" style="enable-background:new 0 0 64 64">
	<style>.st0{fill:#65e}.st1{fill:#2d8}.st2{fill:#28e}.st3{fill:#3f3f3f}.st4{fill:#fff}</style>
	<g id="layer1">
		<rect x="4" y="4" class="st0" width="28" height="28"/>
		<rect x="32" y="4" class="st1" width="28" height="28"/>
		<rect x="4" y="32" class="st2" width="28" height="28"/>
		<rect x="32" y="32" class="st0" width="28" height="28"/>
		<rect x="12" y="12" class="st3" width="40" height="40"/>
	</g>
	<g id="layer2">
		<g>
			<path class="st4" d="M22.8 36.3c-1.4.0-2.6-.3-3.6-.8s-1.8-1.2-2.4-2.2c-.6-.9-.9-2-.9-3.2v-8.7c0-1.3.3-2.3.9-3.2s1.4-1.6 2.4-2.1 2.2-.8 3.6-.8c1.4.0 2.6.3 3.6.8s1.8 1.2 2.4 2.1c.6.9.9 2 .9 3.2h-4.2c0-.8-.2-1.4-.7-1.9-.5-.4-1.1-.6-1.9-.6-.8.0-1.5.2-1.9.6-.5.4-.7 1.1-.7 1.9v8.7c0 .8.2 1.4.7 1.9.5.4 1.1.7 1.9.7.8.0 1.5-.2 1.9-.7.5-.4.7-1.1.7-1.9v-1.9h-3v-3.6h7.2v5.5c0 1.2-.3 2.3-.9 3.2-.6.9-1.4 1.6-2.4 2.2C25.4 36 24.2 36.3 22.8 36.3z"/>
			<path class="st4" d="M39.5 36.3c-2.1.0-3.7-.6-4.9-1.7-1.2-1.2-1.8-2.7-1.8-4.7v-8.1c0-2 .6-3.6 1.8-4.7 1.2-1.1 2.8-1.7 4.9-1.7s3.7.6 4.9 1.7 1.8 2.7 1.8 4.7v8.1c0 2-.6 3.5-1.8 4.7s-2.8 1.7-4.9 1.7zm0-3.7c1.7.0 2.5-.8 2.5-2.5v-8.7c0-1.7-.8-2.5-2.5-2.5s-2.5.8-2.5 2.5v8.7C37 31.8 37.8 32.6 39.5 32.6z"/>
		</g>
		<g>
			<path class="st4" d="M16.3 48.1v-3.9h17.4v3.9H16.3z"/>
		</g>
	</g>
</svg>